<?xml version="1.0" encoding="UTF-8"?>
<svg id="Layer_1" data-name="Layer 1" xmlns="http://www.w3.org/2000/svg" viewBox="0 0 1224 792">
  <defs>
    <style>
      .cls-1, .cls-2 {
        fill: #f8feff;
      }

      .cls-3, .cls-4 {
        fill: #033333;
      }

      .cls-5 {
        fill: #000023;
      }

      .cls-6, .cls-7, .cls-8 {
        fill: #00008b;
      }

      .cls-9 {
        fill: teal;
      }

      .cls-10 {
        fill: gold;
      }

      .cls-11 {
        fill: #b7ff64;
      }

      .cls-12, .cls-13, .cls-14, .cls-15, .cls-16 {
        fill: #add8e6;
      }

      .cls-13 {
        font-size: 21px;
      }

      .cls-13, .cls-14, .cls-4, .cls-7, .cls-16, .cls-8, .cls-2 {
        font-family: Poppins-Regular, Poppins;
      }

      .cls-14, .cls-4, .cls-7 {
        font-size: 43.16px;
      }

      .cls-15 {
        font-family: Poppins-Bold, Poppins;
        font-size: 41.34px;
        font-weight: 700;
      }

      .cls-16, .cls-8, .cls-2 {
        font-size: 23.5px;
      }
    </style>
  </defs>
  <rect class="cls-9" x="1011.23" y="417.77" width="107.88" height="382.52"/>
  <rect class="cls-10" x="1011.23" y="-5.1" width="107.88" height="422.87"/>
  <rect class="cls-5" x="1119.11" y="397.59" width="104.89" height="407.04"/>
  <rect class="cls-1" x="1119.11" y="7.54" width="104.89" height="410.23"/>
  <rect class="cls-11" x="736.96" y="-5.1" width="274.27" height="805.39"/>
  <rect class="cls-6" x="0" y="-6.37" width="258.2" height="798.37"/>
  <rect class="cls-12" x="522.43" y="-5.1" width="234.94" height="805.39"/>
  <rect class="cls-3" x="247.29" y="-9.88" width="274.27" height="805.39"/>
  <text class="cls-15" transform="translate(77.91 335.52) rotate(-90)"><tspan x="0" y="0">Primary Color</tspan></text>
  <text class="cls-14" transform="translate(24.27 708.51)"><tspan x="0" y="0">#00008B</tspan></text>
  <text class="cls-13" transform="translate(31.23 415.42)"><tspan x="0" y="0">This color </tspan><tspan x="0" y="25.2">embodies </tspan><tspan x="0" y="50.4">trustworthiness, </tspan><tspan x="0" y="75.6">innovation, and </tspan><tspan x="0" y="100.8">creativity, all of </tspan><tspan x="0" y="126">which are </tspan><tspan x="0" y="151.2">fundamental </tspan><tspan x="0" y="176.4">qualities for your </tspan><tspan x="0" y="201.6">brand.</tspan></text>
  <text class="cls-14" transform="translate(268.75 710.24)"><tspan x="0" y="0">#033333</tspan></text>
  <text class="cls-7" transform="translate(532.54 709.38)"><tspan x="0" y="0">#ADD8E6</tspan></text>
  <text class="cls-4" transform="translate(775.79 710.45)"><tspan x="0" y="0">#B7FF64</tspan></text>
  <text class="cls-8" transform="translate(1102.49 392.81) rotate(-90)"><tspan x="0" y="0">#FFD700</tspan></text>
  <text class="cls-8" transform="translate(1196.2 392.81) rotate(-90)"><tspan x="0" y="0">#F8FEFF</tspan></text>
  <text class="cls-16" transform="translate(1102.49 758.12) rotate(-90)"><tspan x="0" y="0">#008080</tspan></text>
  <text class="cls-2" transform="translate(1201.27 757.34) rotate(-90)"><tspan x="0" y="0">#000023</tspan></text>
</svg>