<?xml version="1.0" encoding="UTF-8"?>
<svg id="Layer_1" data-name="Layer 1" xmlns="http://www.w3.org/2000/svg" viewBox="0 0 1678.58 1678.58">
  <defs>
    <style>
      .cls-1 {
        fill: #00008b;
      }

      .cls-2 {
        fill: #add8e6;
      }
    </style>
  </defs>
  <rect class="cls-2" y="0" width="1678.58" height="1678.58"/>
  <g>
    <g>
      <path class="cls-1" d="M510.51,855.69v8.57c0,1.44,1.17,2.61,2.61,2.61h22.36c1.44,0,2.61-1.17,2.61-2.61v-49.94c0-1.44-1.17-2.61-2.61-2.61h-22.36c-1.44,0-2.61,1.17-2.61,2.61v8.57c0,1.44-1.17,2.61-2.61,2.61h-49.94c-1.44,0-2.61-1.17-2.61-2.61v-77.53c0-1.44-1.17-2.61-2.61-2.61h-22.36c-1.44,0-2.61,1.17-2.61,2.61v77.53c0,1.44-1.17,2.61-2.61,2.61h-49.94c-1.44,0-2.61-1.17-2.61-2.61v-8.57c0-1.44-1.17-2.61-2.61-2.61h-22.36c-1.44,0-2.61,1.17-2.61,2.61v49.94c0,1.44,1.17,2.61,2.61,2.61h22.36c1.44,0,2.61-1.17,2.61-2.61v-8.57c0-1.44,1.17-2.61,2.61-2.61h49.94c1.44,0,2.61,1.17,2.61,2.61v77.53c0,1.44,1.17,2.61,2.61,2.61h22.36c1.44,0,2.61-1.17,2.61-2.61v-77.53c0-1.44,1.17-2.61,2.61-2.61h49.94c1.44,0,2.61,1.17,2.61,2.61Z"/>
      <path class="cls-1" d="M592.19,825.49c-1.38-9.74-4.23-19.02-8.32-27.58-4.6-9.69-10.77-18.49-18.19-26.08-.49-.51-.99-1.02-1.51-1.51-7.58-7.44-16.38-13.63-26.08-18.24-8.57-4.09-17.84-6.95-27.58-8.34-4.54-.66-9.17-1-13.89-1-3.84,0-7.64,.23-11.36,.67-1.33,.16-2.33,1.26-2.33,2.6v22.57c0,1.61,1.43,2.82,3.02,2.57,3.48-.54,7.04-.83,10.68-.83,4.75,0,9.4,.48,13.89,1.4,10.2,2.08,19.57,6.42,27.58,12.46,5.19,3.91,9.8,8.53,13.7,13.72,6.03,8.02,10.34,17.39,12.41,27.58,.91,4.46,1.38,9.06,1.38,13.79s-.48,9.33-1.38,13.79c-2.06,10.2-6.38,19.57-12.41,27.58-3.89,5.19-8.51,9.81-13.7,13.72-8.01,6.04-17.39,10.38-27.58,12.46-4.48,.92-9.13,1.4-13.89,1.4-3.63,0-7.2-.28-10.68-.83-1.59-.25-3.02,.97-3.02,2.57v22.57c0,1.33,1.01,2.44,2.33,2.6,3.73,.44,7.52,.67,11.36,.67,4.72,0,9.35-.34,13.89-1,9.74-1.39,19.02-4.25,27.58-8.34,9.7-4.61,18.5-10.81,26.08-18.24,.51-.49,1.02-.99,1.51-1.51,7.42-7.58,13.59-16.39,18.19-26.08,4.08-8.57,6.93-17.84,8.32-27.58,.65-4.5,.98-9.11,.98-13.79s-.33-9.29-.98-13.79Z"/>
    </g>
    <g>
      <g>
        <path class="cls-1" d="M686.67,897.88h-20.62c-1.11,0-2-.9-2-2v-92.92c0-1.11,.9-2,2-2h20.62c1.11,0,2,.9,2,2v92.92c0,1.11-.9,2-2,2Z"/>
        <path class="cls-1" d="M756.34,900.61c-9.38,0-17.88-1.95-25.5-5.86-7.62-3.91-13.65-9.58-18.08-17-4.43-7.43-6.64-16.41-6.64-26.97v-2.74c0-10.55,2.21-19.54,6.64-26.97,4.43-7.43,10.46-13.09,18.08-17,7.62-3.91,16.12-5.86,25.5-5.86s17.2,1.63,23.84,4.89c6.65,3.26,12.02,7.72,16.12,13.39,3.73,5.15,6.3,10.92,7.72,17.3,.24,1.07-.47,2.13-1.55,2.36l-19.86,4.23c-1.08,.23-2.15-.46-2.37-1.54-.62-3.13-1.68-5.98-3.19-8.58-1.83-3.13-4.4-5.6-7.72-7.43-3.32-1.82-7.46-2.74-12.41-2.74s-9.41,1.08-13.39,3.22c-3.98,2.15-7.1,5.34-9.38,9.58-2.28,4.24-3.42,9.41-3.42,15.54v1.95c0,6.12,1.14,11.3,3.42,15.54,2.28,4.24,5.4,7.43,9.38,9.58,3.97,2.15,8.43,3.22,13.39,3.22,7.43,0,13.06-1.92,16.9-5.76,3.43-3.43,5.75-7.83,6.95-13.2,.24-1.07,1.34-1.72,2.4-1.47l19.82,4.71c1.1,.26,1.78,1.38,1.48,2.47-1.74,6.13-4.46,11.75-8.17,16.87-4.1,5.67-9.48,10.13-16.12,13.39-6.64,3.26-14.59,4.89-23.84,4.89Z"/>
        <path class="cls-1" d="M843.02,897.88h-20.62c-1.11,0-2-.9-2-2v-132.79c0-1.11,.9-2,2-2h20.62c1.11,0,2,.9,2,2v47.78c0,1.11,.9,2,2,2h.33c.73,0,1.38-.41,1.76-1.04,1.03-1.74,2.47-3.47,4.32-5.21,2.21-2.08,5.18-3.81,8.89-5.18,3.71-1.37,8.43-2.05,14.17-2.05,7.55,0,14.17,1.73,19.83,5.18,5.67,3.45,10.06,8.21,13.19,14.27,3.13,6.06,4.69,13.13,4.69,21.2v55.84c0,1.11-.9,2-2,2h-20.62c-1.11,0-2-.9-2-2v-53.89c0-7.29-1.79-12.77-5.37-16.41-3.58-3.65-8.7-5.47-15.34-5.47-7.56,0-13.42,2.51-17.59,7.52-4.17,5.02-6.25,12.02-6.25,21.01v47.24c0,1.11-.9,2-2,2Z"/>
        <path class="cls-1" d="M982.53,900.61c-9.64,0-18.31-1.95-25.99-5.86-7.69-3.91-13.75-9.58-18.17-17-4.43-7.43-6.64-16.35-6.64-26.77v-3.13c0-10.42,2.21-19.35,6.64-26.77,4.43-7.43,10.48-13.09,18.17-17,7.69-3.91,16.35-5.86,25.99-5.86s18.3,1.95,25.99,5.86c7.69,3.91,13.74,9.58,18.17,17,4.43,7.43,6.64,16.35,6.64,26.77v3.13c0,10.42-2.22,19.35-6.64,26.77-4.43,7.43-10.49,13.09-18.17,17-7.69,3.91-16.35,5.86-25.99,5.86Zm0-21.89c7.55,0,13.81-2.44,18.76-7.33,4.95-4.88,7.43-11.89,7.43-21.01v-1.95c0-9.12-2.44-16.12-7.33-21.01-4.88-4.89-11.17-7.33-18.86-7.33s-13.81,2.44-18.76,7.33c-4.95,4.88-7.43,11.89-7.43,21.01v1.95c0,9.12,2.47,16.12,7.43,21.01,4.95,4.89,11.2,7.33,18.76,7.33Z"/>
        <path class="cls-1" d="M1097.71,900.61c-9.64,0-18.31-1.95-25.99-5.86-7.69-3.91-13.75-9.58-18.17-17-4.43-7.43-6.64-16.35-6.64-26.77v-3.13c0-10.42,2.21-19.35,6.64-26.77,4.43-7.43,10.48-13.09,18.17-17,7.69-3.91,16.35-5.86,25.99-5.86s18.3,1.95,25.99,5.86c7.69,3.91,13.74,9.58,18.17,17,4.43,7.43,6.64,16.35,6.64,26.77v3.13c0,10.42-2.22,19.35-6.64,26.77-4.43,7.43-10.49,13.09-18.17,17-7.69,3.91-16.35,5.86-25.99,5.86Zm0-21.89c7.55,0,13.81-2.44,18.76-7.33,4.95-4.88,7.43-11.89,7.43-21.01v-1.95c0-9.12-2.44-16.12-7.33-21.01-4.88-4.89-11.17-7.33-18.86-7.33s-13.81,2.44-18.76,7.33c-4.95,4.88-7.43,11.89-7.43,21.01v1.95c0,9.12,2.47,16.12,7.43,21.01,4.95,4.89,11.2,7.33,18.76,7.33Z"/>
        <path class="cls-1" d="M1189.13,897.88h-20.62c-1.11,0-2-.9-2-2v-92.92c0-1.11,.9-2,2-2h20.23c1.11,0,2,.9,2,2v6.94c0,1.11,.9,2,2,2h.17c.82,0,1.52-.51,1.85-1.25,1.46-3.28,3.67-5.72,6.63-7.35,3.32-1.82,7.2-2.74,11.63-2.74h9.72c1.11,0,2,.9,2,2v17.88c0,1.11-.9,2-2,2h-10.11c-6.25,0-11.4,1.66-15.44,4.98-4.04,3.32-6.06,8.44-6.06,15.34v53.11c0,1.11-.9,2-2,2Z"/>
        <path class="cls-1" d="M1277.49,899.44c-7.56,0-14.17-1.73-19.84-5.18-5.67-3.45-10.06-8.24-13.19-14.36-3.13-6.12-4.69-13.16-4.69-21.1v-55.84c0-1.11,.9-2,2-2h20.62c1.11,0,2,.9,2,2v53.89c0,7.3,1.79,12.77,5.37,16.42,3.58,3.65,8.7,5.47,15.34,5.47,7.55,0,13.42-2.51,17.59-7.52,4.17-5.01,6.25-12.02,6.25-21.01v-47.24c0-1.11,.9-2,2-2h20.62c1.11,0,2,.9,2,2v92.92c0,1.11-.9,2-2,2h-20.23c-1.11,0-2-.9-2-2v-8.7c0-1.11-.9-2-2-2h-.31c-.74,0-1.4,.42-1.77,1.07-1.66,2.89-4.4,5.72-8.23,8.51-4.3,3.13-10.82,4.69-19.54,4.69Z"/>
      </g>
      <path class="cls-1" d="M985.11,787.97l-6.77-13.83c-.27-.55-.83-.9-1.45-.9h-11.92c-1.31,0-2.07,1.47-1.32,2.54l9.7,13.83c.3,.43,.79,.69,1.32,.69h8.99c1.19,0,1.97-1.25,1.45-2.32Z"/>
      <path class="cls-1" d="M681.02,787.97l-6.77-13.83c-.27-.55-.83-.9-1.45-.9h-11.92c-1.31,0-2.07,1.47-1.32,2.54l9.7,13.83c.3,.43,.79,.69,1.32,.69h8.99c1.19,0,1.97-1.25,1.45-2.32Z"/>
      <path class="cls-1" d="M1101.12,787.97l-6.77-13.83c-.27-.55-.83-.9-1.45-.9h-11.92c-1.31,0-2.07,1.47-1.32,2.54l9.7,13.83c.3,.43,.79,.69,1.32,.69h8.99c1.19,0,1.97-1.25,1.45-2.32Z"/>
      <path class="cls-1" d="M1292.79,787.97l-6.77-13.83c-.27-.55-.83-.9-1.45-.9h-11.92c-1.31,0-2.07,1.47-1.32,2.54l9.7,13.83c.3,.43,.79,.69,1.32,.69h8.99c1.19,0,1.97-1.25,1.45-2.32Z"/>
    </g>
  </g>
</svg>