<?xml version="1.0" encoding="UTF-8"?>
<svg id="Guides" xmlns="http://www.w3.org/2000/svg" viewBox="0 0 576 216">
  <defs>
    <style>
      .cls-1 {
        fill: #f8feff;
      }
    </style>
  </defs>
  <g>
    <path class="cls-1" d="M125.37,116.12v4.24c0,.71,.58,1.29,1.29,1.29h11.06c.71,0,1.29-.58,1.29-1.29v-24.71c0-.71-.58-1.29-1.29-1.29h-11.06c-.71,0-1.29,.58-1.29,1.29v4.24c0,.71-.58,1.29-1.29,1.29h-24.71c-.71,0-1.29-.58-1.29-1.29V61.54c0-.71-.58-1.29-1.29-1.29h-11.06c-.71,0-1.29,.58-1.29,1.29v38.35c0,.71-.58,1.29-1.29,1.29h-24.71c-.71,0-1.29-.58-1.29-1.29v-4.24c0-.71-.58-1.29-1.29-1.29h-11.06c-.71,0-1.29,.58-1.29,1.29v24.71c0,.71,.58,1.29,1.29,1.29h11.06c.71,0,1.29-.58,1.29-1.29v-4.24c0-.71,.58-1.29,1.29-1.29h24.71c.71,0,1.29,.58,1.29,1.29v38.35c0,.71,.58,1.29,1.29,1.29h11.06c.71,0,1.29-.58,1.29-1.29v-38.35c0-.71,.58-1.29,1.29-1.29h24.71c.71,0,1.29,.58,1.29,1.29Z"/>
    <path class="cls-1" d="M165.77,101.18c-.68-4.82-2.09-9.41-4.11-13.64-2.27-4.79-5.33-9.15-9-12.9-.24-.25-.49-.5-.75-.75-3.75-3.68-8.1-6.74-12.9-9.02-4.24-2.02-8.83-3.44-13.64-4.13-2.24-.33-4.54-.5-6.87-.5-1.9,0-3.78,.11-5.62,.33-.66,.08-1.15,.63-1.15,1.29v11.16c0,.79,.71,1.4,1.49,1.27,1.72-.27,3.48-.41,5.28-.41,2.35,0,4.65,.24,6.87,.69,5.04,1.03,9.68,3.17,13.64,6.16,2.57,1.93,4.85,4.22,6.77,6.79,2.98,3.97,5.12,8.6,6.14,13.64,.45,2.21,.68,4.48,.68,6.82s-.24,4.62-.68,6.82c-1.02,5.04-3.16,9.68-6.14,13.64-1.92,2.57-4.21,4.85-6.77,6.79-3.96,2.99-8.6,5.13-13.64,6.16-2.22,.46-4.52,.69-6.87,.69-1.8,0-3.56-.14-5.28-.41-.79-.12-1.49,.48-1.49,1.27v11.16c0,.66,.5,1.21,1.15,1.29,1.84,.22,3.72,.33,5.62,.33,2.33,0,4.63-.17,6.87-.5,4.82-.69,9.41-2.1,13.64-4.13,4.8-2.28,9.15-5.35,12.9-9.02,.25-.24,.5-.49,.75-.75,3.67-3.75,6.72-8.11,9-12.9,2.02-4.24,3.43-8.83,4.11-13.64,.32-2.23,.49-4.51,.49-6.82s-.16-4.6-.49-6.82Z"/>
  </g>
  <g>
    <g>
      <path class="cls-1" d="M212.5,136.98h-10.2c-.55,0-.99-.44-.99-.99v-45.97c0-.55,.44-.99,.99-.99h10.2c.55,0,.99,.44,.99,.99v45.97c0,.55-.44,.99-.99,.99Z"/>
      <path class="cls-1" d="M246.97,138.34c-4.64,0-8.84-.97-12.61-2.9-3.77-1.93-6.75-4.74-8.94-8.41-2.19-3.67-3.29-8.12-3.29-13.34v-1.35c0-5.22,1.09-9.67,3.29-13.34,2.19-3.67,5.17-6.48,8.94-8.41,3.77-1.93,7.97-2.9,12.61-2.9s8.51,.81,11.79,2.42c3.29,1.61,5.95,3.82,7.97,6.62,1.84,2.55,3.12,5.4,3.82,8.56,.12,.53-.23,1.05-.77,1.17l-9.82,2.09c-.53,.11-1.07-.23-1.17-.76-.31-1.55-.83-2.96-1.58-4.24-.9-1.55-2.17-2.77-3.82-3.67-1.64-.9-3.69-1.35-6.14-1.35s-4.66,.53-6.62,1.59c-1.97,1.06-3.51,2.64-4.64,4.74-1.13,2.09-1.69,4.66-1.69,7.68v.97c0,3.03,.56,5.59,1.69,7.68,1.13,2.09,2.67,3.67,4.64,4.74,1.96,1.06,4.17,1.59,6.62,1.59,3.67,0,6.46-.95,8.36-2.85,1.7-1.7,2.84-3.88,3.44-6.53,.12-.53,.66-.85,1.19-.73l9.8,2.33c.54,.13,.88,.68,.73,1.22-.86,3.03-2.21,5.81-4.04,8.34-2.03,2.8-4.69,5.01-7.97,6.62-3.29,1.61-7.22,2.42-11.79,2.42Z"/>
      <path class="cls-1" d="M289.84,136.98h-10.2c-.55,0-.99-.44-.99-.99V70.31c0-.55,.44-.99,.99-.99h10.2c.55,0,.99,.44,.99,.99v23.64c0,.55,.44,.99,.99,.99h.16c.36,0,.68-.2,.87-.52,.51-.86,1.22-1.72,2.13-2.58,1.1-1.03,2.56-1.89,4.4-2.56,1.84-.68,4.17-1.02,7.01-1.02,3.74,0,7.01,.85,9.81,2.56,2.8,1.71,4.98,4.06,6.52,7.06,1.55,3,2.32,6.49,2.32,10.49v27.62c0,.55-.44,.99-.99,.99h-10.2c-.55,0-.99-.44-.99-.99v-26.66c0-3.61-.89-6.31-2.66-8.12-1.77-1.8-4.3-2.71-7.59-2.71-3.74,0-6.64,1.24-8.7,3.72-2.06,2.48-3.09,5.94-3.09,10.39v23.37c0,.55-.44,.99-.99,.99Z"/>
      <path class="cls-1" d="M358.86,138.34c-4.77,0-9.05-.97-12.86-2.9-3.8-1.93-6.8-4.74-8.99-8.41-2.19-3.67-3.29-8.09-3.29-13.24v-1.55c0-5.15,1.09-9.57,3.29-13.24,2.19-3.67,5.19-6.48,8.99-8.41,3.8-1.93,8.09-2.9,12.86-2.9s9.05,.97,12.86,2.9c3.8,1.93,6.8,4.74,8.99,8.41,2.19,3.67,3.29,8.09,3.29,13.24v1.55c0,5.16-1.1,9.57-3.29,13.24-2.19,3.67-5.19,6.48-8.99,8.41-3.8,1.93-8.09,2.9-12.86,2.9Zm0-10.83c3.74,0,6.83-1.21,9.28-3.63,2.45-2.42,3.67-5.88,3.67-10.39v-.97c0-4.51-1.21-7.97-3.63-10.39-2.42-2.42-5.53-3.63-9.33-3.63s-6.83,1.21-9.28,3.63c-2.45,2.42-3.67,5.88-3.67,10.39v.97c0,4.51,1.22,7.97,3.67,10.39,2.45,2.42,5.54,3.63,9.28,3.63Z"/>
      <path class="cls-1" d="M415.83,138.34c-4.77,0-9.05-.97-12.86-2.9-3.8-1.93-6.8-4.74-8.99-8.41-2.19-3.67-3.29-8.09-3.29-13.24v-1.55c0-5.15,1.09-9.57,3.29-13.24,2.19-3.67,5.19-6.48,8.99-8.41,3.8-1.93,8.09-2.9,12.86-2.9s9.05,.97,12.86,2.9c3.8,1.93,6.8,4.74,8.99,8.41,2.19,3.67,3.29,8.09,3.29,13.24v1.55c0,5.16-1.1,9.57-3.29,13.24-2.19,3.67-5.19,6.48-8.99,8.41-3.8,1.93-8.09,2.9-12.86,2.9Zm0-10.83c3.74,0,6.83-1.21,9.28-3.63,2.45-2.42,3.67-5.88,3.67-10.39v-.97c0-4.51-1.21-7.97-3.63-10.39-2.42-2.42-5.53-3.63-9.33-3.63s-6.83,1.21-9.28,3.63c-2.45,2.42-3.67,5.88-3.67,10.39v.97c0,4.51,1.22,7.97,3.67,10.39,2.45,2.42,5.54,3.63,9.28,3.63Z"/>
      <path class="cls-1" d="M461.05,136.98h-10.2c-.55,0-.99-.44-.99-.99v-45.97c0-.55,.44-.99,.99-.99h10.01c.55,0,.99,.44,.99,.99v3.43c0,.55,.44,.99,.99,.99h.08c.4,0,.75-.25,.92-.62,.72-1.62,1.82-2.83,3.28-3.63,1.64-.9,3.56-1.35,5.75-1.35h4.81c.55,0,.99,.44,.99,.99v8.85c0,.55-.44,.99-.99,.99h-5c-3.09,0-5.64,.82-7.64,2.46-2,1.64-3,4.17-3,7.59v26.27c0,.55-.44,.99-.99,.99Z"/>
      <path class="cls-1" d="M504.76,137.76c-3.74,0-7.01-.85-9.81-2.56-2.8-1.71-4.98-4.08-6.52-7.1-1.55-3.03-2.32-6.51-2.32-10.44v-27.62c0-.55,.44-.99,.99-.99h10.2c.55,0,.99,.44,.99,.99v26.66c0,3.61,.89,6.32,2.66,8.12,1.77,1.8,4.3,2.71,7.59,2.71,3.74,0,6.64-1.24,8.7-3.72,2.06-2.48,3.09-5.94,3.09-10.39v-23.37c0-.55,.44-.99,.99-.99h10.2c.55,0,.99,.44,.99,.99v45.97c0,.55-.44,.99-.99,.99h-10.01c-.55,0-.99-.44-.99-.99v-4.3c0-.55-.44-.99-.99-.99h-.15c-.37,0-.69,.21-.88,.53-.82,1.43-2.18,2.83-4.07,4.21-2.13,1.55-5.35,2.32-9.67,2.32Z"/>
    </g>
    <path class="cls-1" d="M360.13,82.62l-3.35-6.84c-.13-.27-.41-.45-.72-.45h-5.9c-.65,0-1.02,.73-.65,1.26l4.8,6.84c.15,.21,.39,.34,.65,.34h4.45c.59,0,.98-.62,.72-1.15Z"/>
    <path class="cls-1" d="M209.71,82.62l-3.35-6.84c-.13-.27-.41-.45-.72-.45h-5.9c-.65,0-1.02,.73-.65,1.26l4.8,6.84c.15,.21,.39,.34,.65,.34h4.45c.59,0,.98-.62,.72-1.15Z"/>
    <path class="cls-1" d="M417.52,82.62l-3.35-6.84c-.13-.27-.41-.45-.72-.45h-5.9c-.65,0-1.02,.73-.65,1.26l4.8,6.84c.15,.21,.39,.34,.65,.34h4.45c.59,0,.98-.62,.72-1.15Z"/>
    <path class="cls-1" d="M512.33,82.62l-3.35-6.84c-.13-.27-.41-.45-.72-.45h-5.9c-.65,0-1.02,.73-.65,1.26l4.8,6.84c.15,.21,.39,.34,.65,.34h4.45c.59,0,.98-.62,.72-1.15Z"/>
  </g>
</svg>