<?xml version="1.0" encoding="UTF-8"?>
<svg id="Guides" xmlns="http://www.w3.org/2000/svg" viewBox="0 0 432 432">
  <defs>
    <style>
      .cls-1 {
        fill: #f8feff;
      }
    </style>
  </defs>
  <path class="cls-1" d="M263.2,234.69v9.76c0,1.64,1.33,2.98,2.98,2.98h25.48c1.64,0,2.98-1.33,2.98-2.98v-56.9c0-1.64-1.33-2.98-2.98-2.98h-25.48c-1.64,0-2.98,1.33-2.98,2.98v9.76c0,1.64-1.33,2.98-2.98,2.98h-56.9c-1.64,0-2.98-1.33-2.98-2.98V108.98c0-1.64-1.33-2.98-2.98-2.98h-25.48c-1.64,0-2.98,1.33-2.98,2.98v88.33c0,1.64-1.33,2.98-2.98,2.98h-56.9c-1.64,0-2.98-1.33-2.98-2.98v-9.76c0-1.64-1.33-2.98-2.98-2.98h-25.47c-1.64,0-2.98,1.33-2.98,2.98v56.9c0,1.64,1.33,2.98,2.98,2.98h25.47c1.64,0,2.98-1.33,2.98-2.98v-9.76c0-1.64,1.33-2.98,2.98-2.98h56.9c1.64,0,2.98,1.33,2.98,2.98v88.33c0,1.64,1.33,2.98,2.98,2.98h25.48c1.64,0,2.98-1.33,2.98-2.98v-88.33c0-1.64,1.33-2.98,2.98-2.98h56.9c1.64,0,2.98,1.33,2.98,2.98Z"/>
  <path class="cls-1" d="M356.25,200.28c-1.58-11.1-4.82-21.67-9.47-31.43-5.24-11.04-12.27-21.07-20.72-29.71-.56-.59-1.13-1.16-1.72-1.72-8.63-8.47-18.66-15.53-29.71-20.78-9.76-4.66-20.33-7.92-31.43-9.5-5.17-.75-10.45-1.14-15.82-1.14-4.38,0-8.7,.26-12.95,.76-1.51,.18-2.66,1.44-2.66,2.96v25.71c0,1.83,1.63,3.22,3.44,2.93,3.96-.62,8.02-.94,12.16-.94,5.42,0,10.71,.55,15.82,1.6,11.62,2.37,22.3,7.31,31.43,14.2,5.91,4.45,11.17,9.72,15.6,15.63,6.87,9.14,11.79,19.81,14.14,31.43,1.03,5.08,1.58,10.33,1.58,15.71s-.55,10.63-1.58,15.71c-2.35,11.62-7.27,22.29-14.14,31.43-4.43,5.91-9.69,11.18-15.6,15.63-9.13,6.88-19.81,11.83-31.43,14.2-5.11,1.05-10.41,1.6-15.82,1.6-4.14,0-8.2-.32-12.16-.94-1.81-.28-3.44,1.1-3.44,2.93v25.71c0,1.52,1.15,2.78,2.66,2.96,4.25,.5,8.57,.76,12.95,.76,5.38,0,10.65-.39,15.82-1.14,11.1-1.59,21.67-4.84,31.43-9.5,11.05-5.26,21.08-12.31,29.71-20.78,.59-.56,1.16-1.13,1.72-1.72,8.45-8.64,15.49-18.67,20.72-29.71,4.65-9.76,7.9-20.33,9.47-31.43,.74-5.13,1.12-10.38,1.12-15.71s-.38-10.59-1.12-15.71Z"/>
</svg>