<?xml version="1.0" encoding="UTF-8"?>
<svg id="Guides" xmlns="http://www.w3.org/2000/svg" viewBox="0 0 144 144">
  <defs>
    <style>
      .cls-1 {
        fill: #00008b;
      }
    </style>
  </defs>
  <path class="cls-1" d="M88.95,78.71v3.51c0,.59,.48,1.07,1.07,1.07h9.15c.59,0,1.07-.48,1.07-1.07v-20.43c0-.59-.48-1.07-1.07-1.07h-9.15c-.59,0-1.07,.48-1.07,1.07v3.51c0,.59-.48,1.07-1.07,1.07h-20.43c-.59,0-1.07-.48-1.07-1.07v-31.72c0-.59-.48-1.07-1.07-1.07h-9.15c-.59,0-1.07,.48-1.07,1.07v31.72c0,.59-.48,1.07-1.07,1.07h-20.43c-.59,0-1.07-.48-1.07-1.07v-3.51c0-.59-.48-1.07-1.07-1.07h-9.15c-.59,0-1.07,.48-1.07,1.07v20.43c0,.59,.48,1.07,1.07,1.07h9.15c.59,0,1.07-.48,1.07-1.07v-3.51c0-.59,.48-1.07,1.07-1.07h20.43c.59,0,1.07,.48,1.07,1.07v31.72c0,.59,.48,1.07,1.07,1.07h9.15c.59,0,1.07-.48,1.07-1.07v-31.72c0-.59,.48-1.07,1.07-1.07h20.43c.59,0,1.07,.48,1.07,1.07Z"/>
  <path class="cls-1" d="M122.36,66.36c-.57-3.99-1.73-7.78-3.4-11.29-1.88-3.96-4.41-7.57-7.44-10.67-.2-.21-.41-.42-.62-.62-3.1-3.04-6.7-5.58-10.67-7.46-3.51-1.67-7.3-2.84-11.29-3.41-1.86-.27-3.75-.41-5.68-.41-1.57,0-3.12,.09-4.65,.27-.54,.06-.95,.52-.95,1.06v9.23c0,.66,.59,1.15,1.24,1.05,1.42-.22,2.88-.34,4.37-.34,1.95,0,3.85,.2,5.68,.57,4.17,.85,8.01,2.63,11.29,5.1,2.12,1.6,4.01,3.49,5.6,5.61,2.47,3.28,4.23,7.11,5.08,11.29,.37,1.82,.57,3.71,.57,5.64s-.2,3.82-.57,5.64c-.84,4.17-2.61,8-5.08,11.29-1.59,2.12-3.48,4.01-5.6,5.61-3.28,2.47-7.11,4.25-11.29,5.1-1.83,.38-3.74,.57-5.68,.57-1.49,0-2.95-.12-4.37-.34-.65-.1-1.24,.4-1.24,1.05v9.23c0,.55,.41,1,.95,1.06,1.53,.18,3.08,.27,4.65,.27,1.93,0,3.83-.14,5.68-.41,3.99-.57,7.78-1.74,11.29-3.41,3.97-1.89,7.57-4.42,10.67-7.46,.21-.2,.42-.41,.62-.62,3.04-3.1,5.56-6.7,7.44-10.67,1.67-3.51,2.84-7.3,3.4-11.29,.27-1.84,.4-3.73,.4-5.64s-.14-3.8-.4-5.64Z"/>
</svg>